<mxfile host="app.diagrams.net" modified="2023-09-25T02:27:03.298Z" agent="Mozilla/5.0 (Windows NT 10.0; Win64; x64) AppleWebKit/537.36 (KHTML, like Gecko) Chrome/116.0.0.0 Safari/537.36" version="21.8.0" etag="C-DbN5dPguL5IHJ4WSQU" type="github">
  <diagram name="หน้า-1" id="GAhkmSubrnlcNbFBSgpT">
    <mxGraphModel>
      <root>
        <mxCell id="0" />
        <mxCell id="1" parent="0" />
      </root>
    </mxGraphModel>
  </diagram>
</mxfile>
